<svg width="40" height="40" viewBox="0 0 40 40" fill="none" xmlns="http://www.w3.org/2000/svg">
<path d="M12.0002 17.5999C12.0002 16.2743 10.9258 15.1999 9.6002 15.1999C8.2746 15.1999 7.2002 16.2743 7.2002 17.5999V25.5999C7.2002 32.2271 12.573 37.5999 19.2002 37.5999C25.8274 37.5999 31.2002 32.2271 31.2002 25.5999V19.1999C31.2002 17.8743 30.1258 16.7999 28.8002 16.7999C27.4746 16.7999 26.4002 17.8743 26.4002 19.1999V17.5999C26.4002 16.2743 25.3258 15.1999 24.0002 15.1999C22.6746 15.1999 21.6002 16.2743 21.6002 17.5999V15.9999C21.6002 14.6743 20.5258 13.5999 19.2002 13.5999C17.8746 13.5999 16.8002 14.6743 16.8002 15.9999V4.7999C16.8002 3.4743 15.7258 2.3999 14.4002 2.3999C13.0746 2.3999 12.0002 3.4743 12.0002 4.7999V23.1999V17.5999Z" stroke="white" stroke-width="2" stroke-miterlimit="10" stroke-linecap="round" stroke-linejoin="round"/>
<path d="M31.9998 6.3999H20.7998" stroke="white" stroke-width="2" stroke-miterlimit="10" stroke-linecap="round" stroke-linejoin="round"/>
<path d="M23.1998 4L20.7998 6.4L23.1998 8.8" stroke="white" stroke-width="2" stroke-miterlimit="10" stroke-linecap="round" stroke-linejoin="round"/>
</svg>
