<svg width="40" height="40" viewBox="0 0 40 40" fill="none" xmlns="http://www.w3.org/2000/svg">
<path d="M11.9992 17.5999C11.9992 16.2743 10.9248 15.1999 9.59922 15.1999C8.27362 15.1999 7.19922 16.2743 7.19922 17.5999V25.5999C7.19922 32.2271 12.572 37.5999 19.1992 37.5999C25.8264 37.5999 31.1992 32.2271 31.1992 25.5999V19.1999C31.1992 17.8743 30.1248 16.7999 28.7992 16.7999C27.4736 16.7999 26.3992 17.8743 26.3992 19.1999V17.5999C26.3992 16.2743 25.3248 15.1999 23.9992 15.1999C22.6736 15.1999 21.5992 16.2743 21.5992 17.5999V15.9999C21.5992 14.6743 20.5248 13.5999 19.1992 13.5999C17.8736 13.5999 16.7992 14.6743 16.7992 15.9999V4.7999C16.7992 3.4743 15.7248 2.3999 14.3992 2.3999C13.0736 2.3999 11.9992 3.4743 11.9992 4.7999V23.1999V17.5999Z" stroke="white" stroke-width="2" stroke-miterlimit="10" stroke-linecap="round" stroke-linejoin="round"/>
<path d="M31.9988 6.3999H20.7988" stroke="white" stroke-width="2" stroke-miterlimit="10" stroke-linecap="round" stroke-linejoin="round"/>
<path d="M29.5996 4L31.9996 6.4L29.5996 8.8" stroke="white" stroke-width="2" stroke-miterlimit="10" stroke-linecap="round" stroke-linejoin="round"/>
</svg>
