<svg width="81" height="80" viewBox="0 0 81 80" fill="none" xmlns="http://www.w3.org/2000/svg">
<path fill-rule="evenodd" clip-rule="evenodd" d="M75.501 47.4938C75.501 44.0457 73.1304 41.1509 69.9472 40.2841C70.2974 39.4192 70.501 38.4803 70.501 37.4938C70.501 33.3688 67.1259 29.9938 63.001 29.9938H54.3798C56.8717 26.6846 59.8504 21.7689 59.889 16.0183C59.9167 11.7361 58.8457 8.62331 56.707 6.76458C55.099 5.36647 52.8789 4.75612 50.6426 5.08897C48.9775 5.33229 46.1976 6.40733 46.2871 10.8735C46.305 11.7402 45.8232 13.4459 44.4202 15.6326C43.7611 16.658 41.5931 18.7918 40.0965 19.7285C38.9832 20.4251 37.9041 21.3634 36.952 22.191C36.1577 22.8819 35.3358 23.5965 34.8166 23.8805C33.0457 24.8448 31.5768 25.5707 30.2918 26.2063C26.436 28.1139 23.8888 29.3736 20.0509 33.5997L19.7832 33.9106C19.2835 34.5038 18.9165 34.8676 18.6895 34.9938H10.501C7.60384 34.9938 5.50098 37.0966 5.50098 39.9938V64.9938C5.50098 67.8909 7.60384 69.9938 10.501 69.9938H18.2209C19.7164 70.7573 23.8358 72.748 27.4598 73.4475C34.8925 74.8826 42.7714 74.9865 47.9855 74.9922C47.9908 74.9922 47.9957 74.9938 48.001 74.9938H48.5918H49.251H49.8337H58.001C62.1259 74.9938 65.501 71.6187 65.501 67.4938C65.501 66.5072 65.2974 65.5683 64.9472 64.7034C68.1304 63.8366 70.501 60.9418 70.501 57.4938C70.501 56.5072 70.2974 55.5683 69.9472 54.7034C73.1304 53.8366 75.501 50.9418 75.501 47.4938ZM65.501 37.4938C65.501 38.8488 64.3562 39.9938 63.001 39.9938H48.001C46.6459 39.9938 45.501 38.8488 45.501 37.4938C45.501 36.1386 46.6459 34.9938 48.001 34.9938H63.001C64.3562 34.9938 65.501 36.1386 65.501 37.4938ZM20.0241 65.2949C19.9908 65.277 19.9553 65.2685 19.9217 65.2522C19.8401 65.2126 19.7567 65.1784 19.6704 65.1477C19.5972 65.1216 19.5246 65.0982 19.4504 65.0793C19.37 65.0588 19.2887 65.0436 19.2054 65.0311C19.1203 65.0184 19.036 65.0093 18.9508 65.0055C18.9113 65.0036 18.8742 64.9938 18.8343 64.9938L10.501 64.9807L10.5148 39.9938H18.8343C21.1976 39.9938 22.887 37.9877 23.6081 37.1308L23.7529 36.9607C26.9544 33.4353 28.8107 32.5174 32.5086 30.6879C33.8433 30.0279 35.3691 29.2727 37.2108 28.2701C38.2085 27.7249 39.1924 26.8696 40.2332 25.9638C41.0861 25.2224 41.9683 24.455 42.7487 23.9675C44.7604 22.7086 47.5078 20.0768 48.6276 18.3344C50.3854 15.5952 51.3294 12.9096 51.2871 10.7726C51.279 10.4112 51.305 10.1793 51.3294 10.0426C51.3424 10.0401 51.3555 10.0385 51.3685 10.0361C51.8454 9.96771 52.7373 9.93841 53.4274 10.5382C54.3877 11.3723 54.9069 13.3067 54.889 15.9858C54.8516 21.7141 50.7028 26.6962 48.4746 29.3728C48.2857 29.6003 48.1209 29.8007 47.9596 29.9979C43.8538 30.021 40.501 33.3829 40.501 37.4938C40.501 39.4185 41.256 41.1623 42.459 42.4938C41.256 43.8252 40.501 45.569 40.501 47.4938C40.501 49.4185 41.256 51.1623 42.459 52.4938C41.256 53.8252 40.501 55.569 40.501 57.4938C40.501 59.4185 41.256 61.1623 42.459 62.4938C41.256 63.8252 40.501 65.569 40.501 67.4938C40.501 68.325 40.67 69.1118 40.9226 69.8606C36.9806 69.6994 32.5863 69.3447 28.4071 68.5387C24.7441 67.8323 20.0705 65.3209 20.0241 65.2949ZM58.001 69.9938H49.8337H49.2477C48.8635 69.9944 48.4238 69.9939 47.9998 69.9937C46.6453 69.993 45.501 68.8484 45.501 67.4938C45.501 66.1386 46.6459 64.9938 48.001 64.9938H58.001C59.3562 64.9938 60.501 66.1386 60.501 67.4938C60.501 68.8488 59.3562 69.9938 58.001 69.9938ZM63.001 59.9938H58.001H48.001C46.6459 59.9938 45.501 58.8488 45.501 57.4938C45.501 56.1386 46.6459 54.9938 48.001 54.9938H63.001C64.3562 54.9938 65.501 56.1386 65.501 57.4938C65.501 58.8488 64.3562 59.9938 63.001 59.9938ZM68.001 49.9938H63.001H48.001C46.6459 49.9938 45.501 48.8488 45.501 47.4938C45.501 46.1386 46.6459 44.9938 48.001 44.9938H63.001H68.001C69.3562 44.9938 70.501 46.1386 70.501 47.4938C70.501 48.8488 69.3562 49.9938 68.001 49.9938Z" fill="#006FCF"/>
</svg>
