<svg width="95" height="80" viewBox="0 0 95 80" fill="none" xmlns="http://www.w3.org/2000/svg">
<path fill-rule="evenodd" clip-rule="evenodd" d="M61.0905 8.06689H4.57491C2.28738 8.06689 0.538086 9.81479 0.538086 12.1005V52.4366C0.538086 54.5879 2.28738 56.4703 4.57491 56.4703H61.0905C63.378 56.4703 65.1273 54.5879 65.1273 52.4366V12.1005C65.1273 9.81479 63.2435 8.06689 61.0905 8.06689ZM32.8327 36.9745L7.80438 12.1005H57.7265L32.8327 36.9745ZM4.57491 52.4366V14.5207L31.3525 41.277C31.7562 41.6803 32.2945 41.8148 32.8327 41.8148C33.3709 41.8148 33.9092 41.6803 34.3129 41.277L61.0905 14.5207V52.4366H4.57491Z" fill="#006FCF"/>
<path d="M61.0907 57.0083H4.57507C2.01841 57.0083 0 54.857 0 52.4369V12.1007C0 9.68056 2.01841 7.5293 4.57507 7.5293H61.0907C63.5128 7.5293 65.6657 9.5461 65.6657 12.1007V52.4369C65.5312 54.857 63.5128 57.0083 61.0907 57.0083ZM4.57507 8.60493C2.55666 8.60493 0.941926 10.0839 0.941926 12.1007V52.4369C0.941926 54.4537 2.55666 55.9327 4.44051 55.9327H60.9561C62.9745 55.9327 64.4547 54.3192 64.4547 52.4369V12.1007C64.4547 10.0839 62.8399 8.60493 60.9561 8.60493H4.57507ZM61.4943 52.9747H4.03683V13.3108L31.6218 40.8738C32.1601 41.4117 33.2365 41.4117 33.7748 40.8738L61.4943 13.3108V52.9747ZM4.97875 51.899H60.5524V15.5965L34.5822 41.6806C33.6402 42.6217 32.0255 42.6217 31.0836 41.6806L4.97875 15.5965V51.899ZM32.8329 37.6469L6.72805 11.5629H58.9377L32.8329 37.6469ZM9.01558 12.6385L32.8329 36.3024L56.5156 12.6385H9.01558Z" fill="#006FCF"/>
<path fill-rule="evenodd" clip-rule="evenodd" d="M62.7058 27.563C61.8985 27.563 61.2257 27.9664 60.822 28.5042L48.8461 46.7899L36.8701 65.0756C36.4665 65.6134 36.4665 66.4201 36.8701 66.9579C37.2738 67.4958 37.9466 67.8991 38.754 67.8991H62.8404H86.9268C87.7342 67.8991 88.407 67.4958 88.8107 66.9579C89.2143 66.4201 89.2143 65.6134 88.8107 65.0756L76.8347 46.7899L64.5897 28.5042C64.186 27.9664 63.3786 27.563 62.7058 27.563Z" fill="white"/>
<path fill-rule="evenodd" clip-rule="evenodd" d="M62.7064 23.5298C64.8594 23.5298 66.8778 24.6054 67.9543 26.3533L79.9302 44.639L91.9062 62.9247C93.1172 64.8071 93.1172 67.3617 91.9062 69.2441C90.8297 70.992 88.8112 72.0676 86.6583 72.0676H62.7064H38.62C36.4671 72.0676 34.4486 70.992 33.3722 69.2441C32.1611 67.3617 32.1611 64.8071 33.3722 62.9247L45.3481 44.639L57.324 26.3533C58.535 24.6054 60.5535 23.5298 62.7064 23.5298ZM62.7064 27.5634C61.8991 27.5634 61.2263 27.9668 60.8226 28.5046L48.8467 46.7903L36.8707 65.076C36.4671 65.6138 36.4671 66.4205 36.8707 66.9584C37.2744 67.4962 37.9472 67.8995 38.7546 67.8995H62.841H86.9274C87.7348 67.8995 88.4076 67.4962 88.8112 66.9584C89.2149 66.4205 89.2149 65.6138 88.8112 65.076L76.8353 46.7903L64.5903 28.5046C64.1866 27.9668 63.3792 27.5634 62.7064 27.5634ZM62.7064 64.2693C61.3608 64.2693 60.2843 63.1936 60.2843 61.8491C60.2843 60.5046 61.3608 59.4289 62.7064 59.4289C64.052 59.4289 65.1285 60.5046 65.1285 61.8491C65.1285 63.1936 63.9175 64.2693 62.7064 64.2693ZM62.7064 57.1432C61.6299 57.1432 60.688 56.2021 60.688 55.1264V36.3029C60.688 35.2273 61.6299 34.2861 62.7064 34.2861C63.7829 34.2861 64.7248 35.2273 64.7248 36.3029V55.1264C64.7248 56.2021 63.7829 57.1432 62.7064 57.1432Z" fill="#006FCF"/>
<path d="M86.658 72.471H38.6198C36.3322 72.471 34.1792 71.3954 32.9682 69.513C31.6226 67.3618 31.6226 64.6727 32.9682 62.6559L57.0546 26.0844C58.2656 24.2021 60.4186 23.1265 62.7062 23.1265C64.9937 23.1265 67.1467 24.2021 68.3577 26.0844L92.4441 62.6559C93.7897 64.8071 93.7897 67.4962 92.4441 69.513C91.0985 71.2609 89.0801 72.471 86.658 72.471ZM62.7062 24.0676C60.6877 24.0676 58.9384 25.0088 57.862 26.6223L33.7756 63.0592C32.5645 64.8071 32.5645 67.0929 33.7756 68.8408C34.852 70.4542 36.6013 71.3954 38.6198 71.3954H86.7926C88.811 71.3954 90.5603 70.4542 91.6367 68.8408C92.8478 67.0929 92.8478 64.8071 91.6367 63.0592L67.5503 26.6223C66.4739 25.0088 64.59 24.0676 62.7062 24.0676ZM86.658 68.4374H38.6198C37.6778 68.4374 36.8705 68.034 36.3322 67.2273C35.794 66.4206 35.794 65.4794 36.3322 64.8071L60.4186 28.2357C60.9569 27.5634 61.7642 27.0256 62.7062 27.0256C63.6481 27.0256 64.4554 27.429 64.9937 28.2357L89.0801 64.8071C89.6183 65.6139 89.6183 66.555 89.0801 67.2273C88.5418 67.8996 87.5999 68.4374 86.658 68.4374ZM62.7062 28.1013C62.0333 28.1013 61.4951 28.3702 61.226 28.908L37.1396 65.345C36.8705 65.7483 36.8705 66.2861 37.1396 66.6895C37.4087 67.0928 37.9469 67.4962 38.6198 67.4962H86.7926C87.4654 67.4962 88.0036 67.2273 88.2727 66.6895C88.5418 66.2861 88.5418 65.7483 88.2727 65.345L64.1863 28.7735C63.7826 28.3702 63.2444 28.1013 62.7062 28.1013ZM62.7062 64.6727C61.0914 64.6727 59.8804 63.4626 59.8804 61.8492C59.8804 60.2357 61.0914 59.0256 62.7062 59.0256C64.3209 59.0256 65.5319 60.2357 65.5319 61.8492C65.5319 63.4626 64.1863 64.6727 62.7062 64.6727ZM62.7062 59.9668C61.6297 59.9668 60.8223 60.7735 60.8223 61.8492C60.8223 62.9248 61.6297 63.7315 62.7062 63.7315C63.7826 63.7315 64.59 62.9248 64.59 61.8492C64.59 60.7735 63.6481 59.9668 62.7062 59.9668ZM62.7062 57.6811C61.3605 57.6811 60.1495 56.6055 60.1495 55.1265V36.3029C60.1495 34.9584 61.226 33.7483 62.7062 33.7483C64.1863 33.7483 65.2628 34.8239 65.2628 36.3029V55.1265C65.1282 56.471 64.0518 57.6811 62.7062 57.6811ZM62.7062 34.8239C61.8988 34.8239 61.226 35.4962 61.226 36.3029V55.1265C61.226 55.9332 61.8988 56.6055 62.7062 56.6055C63.5135 56.6055 64.1863 55.9332 64.1863 55.1265V36.3029C64.1863 35.4962 63.5135 34.8239 62.7062 34.8239Z" fill="#006FCF"/>
</svg>
