<svg width="70" height="70" viewBox="0 0 70 70" fill="none" xmlns="http://www.w3.org/2000/svg">
<path fill-rule="evenodd" clip-rule="evenodd" d="M68.6955 65.2173L48.4057 44.9274C57.2462 34.3477 56.6665 18.5506 46.8115 8.5506C41.5941 3.18829 34.6376 0.57959 27.681 0.57959C20.7245 0.57959 13.9129 3.18829 8.69552 8.5506C-1.88418 19.1303 -1.88418 36.2318 8.69552 46.8115C13.9129 52.0289 20.8694 54.7825 27.826 54.7825C33.9129 54.7825 40.1448 52.7535 45.0723 48.5506L65.3622 68.8405C65.797 69.2752 66.5216 69.5651 67.1013 69.5651C67.681 69.5651 68.4057 69.2752 68.8405 68.8405C69.71 67.681 69.71 66.0868 68.6955 65.2173ZM12.1738 43.1883C7.97089 39.1303 5.65205 33.4781 5.65205 27.681C5.65205 21.8839 7.97089 16.2318 12.1738 12.0289C16.2318 7.82597 21.8839 5.50713 27.681 5.50713C33.6231 5.50713 39.1303 7.82597 43.3332 12.0289C47.5361 16.2318 49.8549 21.739 49.8549 27.681C49.8549 33.6231 47.5361 39.1303 43.3332 43.3332C39.1303 47.5361 33.6231 49.855 27.681 49.855C21.8839 49.71 16.2318 47.3912 12.1738 43.1883Z" fill="#006FCF"/>
<path d="M67.1012 70C66.2317 70 65.507 69.7101 64.9273 69.1304L44.9273 49.1304C39.9998 53.0435 33.9128 55.2174 27.681 55.2174C20.2897 55.2174 13.3331 52.3188 8.11574 47.1014C-2.60889 36.3768 -2.60889 18.8406 8.11574 7.97101C13.4781 2.89855 20.4346 0 27.681 0C34.9273 0 42.0288 2.89855 47.2462 8.11594C57.2462 18.1159 58.1157 33.913 49.2752 44.9275L69.1302 64.7826C69.7099 65.3623 69.9998 66.087 69.9998 66.9565C69.9998 67.8261 69.7099 68.5507 69.1302 69.1304C68.5505 69.7101 67.8259 70 67.1012 70ZM45.0723 47.5362L65.7969 68.2609C66.5215 68.9855 67.681 68.9855 68.4056 68.2609C69.1302 67.5362 69.1302 66.3768 68.4056 65.6522L47.681 44.9275L47.9708 44.4928C56.8114 33.913 56.0868 18.6957 46.3766 8.98551C41.4491 4.05797 34.7824 1.30435 27.681 1.30435C20.5795 1.30435 14.0578 3.91304 9.13024 8.98551C-1.15962 19.2754 -1.15962 36.087 9.13024 46.3768C14.0578 51.3043 20.7244 54.058 27.8259 54.058C33.9128 54.058 39.9998 51.8841 44.6375 47.971L45.0723 47.5362ZM27.681 50.2899C21.594 50.2899 15.9418 47.971 11.594 43.6232C7.24618 39.2754 4.92734 33.6232 4.92734 27.5362C4.92734 21.4493 7.39111 15.7971 11.7389 11.5942C16.0868 7.24638 21.7389 4.92754 27.8259 4.92754C33.9128 4.92754 39.565 7.24638 43.7679 11.5942C48.1157 15.942 50.4346 21.5942 50.4346 27.6812C50.4346 33.7681 48.1157 39.4203 43.7679 43.7681C39.565 47.971 33.7679 50.2899 27.681 50.2899ZM12.6085 42.7536C16.6665 46.8116 22.0288 48.9855 27.8259 48.9855C33.623 48.9855 38.9853 46.8116 43.0433 42.7536C47.1012 38.6957 49.2752 33.3333 49.2752 27.5362C49.2752 21.7391 47.1012 16.3768 43.0433 12.3188C38.8404 8.4058 33.4781 6.08696 27.681 6.08696C21.8839 6.08696 16.6665 8.4058 12.6085 12.4638C8.55053 16.5217 6.37661 21.8841 6.37661 27.6812C6.23169 33.3333 8.55053 38.6957 12.6085 42.7536Z" fill="#006FCF"/>
</svg>
