<svg width="81" height="80" viewBox="0 0 81 80" fill="none" xmlns="http://www.w3.org/2000/svg">
<path d="M40.501 8C22.8595 8 8.50098 22.3585 8.50098 40C8.50098 57.6415 22.8595 72 40.501 72C58.1425 72 72.501 57.6415 72.501 40C72.501 22.3585 58.1425 8 40.501 8ZM40.501 13.3333C55.2602 13.3333 67.1676 25.2408 67.1676 40C67.1676 54.7592 55.2602 66.6667 40.501 66.6667C25.7418 66.6667 13.8343 54.7592 13.8343 40C13.8343 25.2408 25.7418 13.3333 40.501 13.3333ZM28.501 34.6667C27.4401 34.6667 26.4227 35.0881 25.6726 35.8382C24.9224 36.5884 24.501 37.6058 24.501 38.6667C24.501 39.7275 24.9224 40.7449 25.6726 41.4951C26.4227 42.2452 27.4401 42.6667 28.501 42.6667C29.5618 42.6667 30.5793 42.2452 31.3294 41.4951C32.0795 40.7449 32.501 39.7275 32.501 38.6667C32.501 37.6058 32.0795 36.5884 31.3294 35.8382C30.5793 35.0881 29.5618 34.6667 28.501 34.6667ZM52.501 34.6667C51.4401 34.6667 50.4227 35.0881 49.6726 35.8382C48.9224 36.5884 48.501 37.6058 48.501 38.6667C48.501 39.7275 48.9224 40.7449 49.6726 41.4951C50.4227 42.2452 51.4401 42.6667 52.501 42.6667C53.5618 42.6667 54.5793 42.2452 55.3294 41.4951C56.0795 40.7449 56.501 39.7275 56.501 38.6667C56.501 37.6058 56.0795 36.5884 55.3294 35.8382C54.5793 35.0881 53.5618 34.6667 52.501 34.6667ZM40.501 48C36.4565 48 33.2435 49.617 31.0999 51.1771C30.5283 51.5937 30.1455 52.2202 30.0358 52.9189C29.926 53.6177 30.0983 54.3314 30.5147 54.9032C30.9311 55.4749 31.5575 55.8579 32.2562 55.9679C32.9549 56.0778 33.6687 55.9058 34.2406 55.4896C35.761 54.383 37.8788 53.3333 40.501 53.3333C43.1232 53.3333 45.241 54.383 46.7614 55.4896C47.0445 55.6959 47.3656 55.8445 47.7062 55.9267C48.0467 56.009 48.4002 56.0233 48.7463 55.969C49.0924 55.9146 49.4244 55.7926 49.7234 55.6099C50.0223 55.4272 50.2824 55.1874 50.4886 54.9041C50.6949 54.6209 50.8433 54.2998 50.9255 53.9592C51.0076 53.6186 51.0219 53.2652 50.9674 52.9191C50.9129 52.573 50.7908 52.241 50.608 51.9421C50.4252 51.6432 50.1853 51.3833 49.902 51.1771C47.7584 49.617 44.5454 48 40.501 48Z" fill="#006FCF"/>
</svg>
