<svg width="80" height="80" viewBox="0 0 80 80" fill="none" xmlns="http://www.w3.org/2000/svg">
<path fill-rule="evenodd" clip-rule="evenodd" d="M74.9843 34.9842C77.743 34.9842 80 37.2413 80 39.9999V64.9529C80 67.7115 77.743 69.9686 74.9843 69.9686H45.0157C42.2571 69.9686 40 67.7115 40 64.9529V59.9372H5.01567C2.25705 59.9372 0 57.6802 0 54.9215V15.0469C0 12.2883 2.25705 10.0312 5.01567 10.0312H55.047C57.8056 10.0312 60.0627 12.2883 60.0627 15.0469V20.0626C65.5799 20.0626 70.094 24.5767 70.094 30.0939V35.1096H74.9843V34.9842ZM64.953 29.9686C64.953 27.2099 62.6959 24.9529 59.9373 24.9529C57.1787 24.9529 54.9216 27.2099 54.9216 29.9686V34.9842H64.953V29.9686ZM55.047 15.0469H5.01567V25.0783H51.4107C52.2884 23.5736 53.5423 22.3197 55.047 21.4419V15.0469ZM40 39.9999C40 37.2413 42.2571 34.9842 45.0157 34.9842H50.0314V29.9686H5.01567V54.9215H40V39.9999ZM74.9843 64.9529V39.9999H45.0157V64.9529H74.9843ZM10.0313 22.445C8.65204 22.445 7.52351 21.3165 7.52351 19.9372C7.52351 18.5579 8.65204 17.4294 10.0313 17.4294C11.4107 17.4294 12.5392 18.5579 12.5392 19.9372C12.5392 21.3165 11.4107 22.445 10.0313 22.445ZM16.6771 22.445C15.2978 22.445 14.1693 21.3165 14.1693 19.9372C14.1693 18.5579 15.2978 17.4294 16.6771 17.4294C18.0564 17.4294 19.185 18.5579 19.185 19.9372C19.185 21.3165 18.0564 22.445 16.6771 22.445ZM23.3229 22.445C21.9436 22.445 20.815 21.3165 20.815 19.9372C20.815 18.5579 21.9436 17.4294 23.3229 17.4294C24.7022 17.4294 25.8307 18.5579 25.8307 19.9372C25.8307 21.3165 24.7022 22.445 23.3229 22.445ZM57.5549 51.5359C56.8025 50.909 56.3009 49.9059 56.3009 48.7773C56.3009 46.6457 57.931 45.0156 60.0627 45.0156C62.1944 45.0156 63.8245 46.6457 63.8245 48.7773C63.8245 49.9059 63.3229 50.909 62.5705 51.5359V57.5548C62.5705 58.9341 61.442 60.0626 60.0627 60.0626C58.6834 60.0626 57.5549 58.9341 57.5549 57.5548V51.5359Z" fill="#006FCF"/>
</svg>
