<svg width="25" height="25" viewBox="0 0 25 25" fill="none" xmlns="http://www.w3.org/2000/svg">
<path fill-rule="evenodd" clip-rule="evenodd" d="M1.67433 0.444417C0.239451 1.27284 -0.252174 3.10762 0.576253 4.54249L4.12626 10.6913C2.38142 12.2336 1.90267 14.8399 3.11215 16.9348L4.65076 19.5997C5.38024 20.8632 6.48628 21.8672 7.81427 22.4714L12.4889 24.598C13.6648 25.133 15.0266 25.0671 16.1453 24.4212L22.8269 20.5636C24.07 19.8459 24.8332 18.5171 24.8268 17.0817L24.8058 12.3538C24.8003 11.1357 24.4771 9.93999 23.868 8.88501L22.1647 5.9348C20.8244 3.61337 17.9037 2.77329 15.5463 3.98902C14.7619 3.72936 13.8744 3.79302 13.1025 4.23865C12.6395 4.50597 12.2747 4.87809 12.0208 5.30774C11.1427 4.85297 10.0584 4.84149 9.13843 5.37262C8.83477 5.54794 8.57336 5.76833 8.35776 6.02046L5.77241 1.54249C4.94398 0.107615 3.10921 -0.38401 1.67433 0.444417Z" fill="white"/>
<path fill-rule="evenodd" clip-rule="evenodd" d="M1.67433 0.444417C0.239451 1.27284 -0.252174 3.10762 0.576253 4.54249L4.12626 10.6913C2.38142 12.2336 1.90267 14.8399 3.11215 16.9348L4.65076 19.5997C5.38024 20.8632 6.48628 21.8672 7.81427 22.4714L12.4889 24.598C13.6648 25.133 15.0266 25.0671 16.1453 24.4212L22.8269 20.5636C24.07 19.8459 24.8332 18.5171 24.8268 17.0817L24.8058 12.3538C24.8003 11.1357 24.4771 9.93999 23.868 8.88501L22.1647 5.9348C20.8244 3.61337 17.9037 2.77329 15.5463 3.98902C14.7619 3.72936 13.8744 3.79302 13.1025 4.23865C12.6395 4.50597 12.2747 4.87809 12.0208 5.30774C11.1427 4.85297 10.0584 4.84149 9.13843 5.37262C8.83477 5.54794 8.57336 5.76833 8.35776 6.02046L5.77241 1.54249C4.94398 0.107615 3.10921 -0.38401 1.67433 0.444417ZM9.77241 8.4707C10.0485 8.94899 9.88467 9.56058 9.40638 9.83672C8.92809 10.1129 8.3165 9.94899 8.04035 9.4707L4.04035 2.54249C3.76421 2.0642 3.15262 1.90033 2.67433 2.17647C2.19604 2.45261 2.03216 3.0642 2.3083 3.54249L8.8083 14.8008C9.08445 15.2791 8.92057 15.8907 8.44228 16.1668C7.96399 16.443 7.3524 16.2791 7.07625 15.8008L5.16161 12.4846C4.35844 13.4238 4.19109 14.8036 4.8442 15.9348L6.38281 18.5997C6.90386 19.5022 7.69389 20.2194 8.64246 20.6509L13.3171 22.7776C13.9051 23.045 14.586 23.0121 15.1453 22.6891L21.8269 18.8316C22.4484 18.4727 22.83 17.8083 22.8268 17.0906L22.8058 12.3627C22.8019 11.4926 22.571 10.6386 22.136 9.88501L20.4327 6.9348C19.7795 5.80358 18.501 5.25862 17.286 5.48456L17.7006 6.20275C17.9768 6.68104 17.8129 7.29263 17.3346 7.56877C16.8563 7.84491 16.2447 7.68104 15.9686 7.20275L15.4686 6.33672C15.1924 5.85843 14.5808 5.69455 14.1025 5.9707C13.6242 6.24684 13.4604 6.85843 13.7365 7.33672C14.0126 7.81501 13.8488 8.42661 13.3705 8.70275C12.8922 8.97889 12.2806 8.81501 12.0045 8.33672L11.5045 7.4707C11.2283 6.9924 10.6167 6.82853 10.1384 7.10467C9.66014 7.38081 9.49626 7.9924 9.77241 8.4707Z" fill="#12131A"/>
</svg>
